<svg xmlns="http://www.w3.org/2000/svg" viewBox="0 0 32.13 16"><defs><style>.cls-1{fill:#ff0;stroke:#42210b;stroke-miterlimit:10;stroke-width:0.75px;}</style></defs><title>Asset 4</title><g id="Layer_2" data-name="Layer 2"><g id="Layer_2-2" data-name="Layer 2"><path class="cls-1" d="M.39,7.3a31.39,31.39,0,0,0,7.9-3.62,42.54,42.54,0,0,1,4-2.13A12.94,12.94,0,0,1,16.19.45,14.65,14.65,0,0,1,20.1.59,17.79,17.79,0,0,1,24,1.7a18.63,18.63,0,0,1,3.88,2.24,18,18,0,0,1,3.87,3.85l0,.87a18.29,18.29,0,0,1-4,3.72,18.83,18.83,0,0,1-4,2.12,17.92,17.92,0,0,1-3.94,1,15.13,15.13,0,0,1-3.92,0,13,13,0,0,1-3.9-1.23A41,41,0,0,1,8.16,12,31.13,31.13,0,0,0,.38,8.17Z"/></g></g></svg>