<svg id="Layer_1" data-name="Layer 1" xmlns="http://www.w3.org/2000/svg" viewBox="0 0 108 37"><defs><style>.cls-1{fill:#42210b;}.cls-2{fill:#c1272d;stroke:#42210b;stroke-miterlimit:10;stroke-width:0.75px;}</style></defs><title>Artboard 1</title><path class="cls-1" d="M6.05,15.77c1-1.31,1.6-1.37,2-1.15l1.39.51,2.75,1c1.82.72,3.62,1.44,5.44,2.12,3.62,1.36,7.42,2.31,11.09,1.82a24.71,24.71,0,0,0,5.48-1.37c1.85-.68,3.8-1.45,5.86-2a30,30,0,0,1,6.3-1.08,38.21,38.21,0,0,1,6.33.17,38,38,0,0,1,12,3.6c3.74,1.76,7.19,4,10.65,6s7,4,11,4.34A13.74,13.74,0,0,0,92.19,29a21.37,21.37,0,0,0,5.31-2.83,21.6,21.6,0,0,1-5.17,3.2,14.25,14.25,0,0,1-6,1.15,19.31,19.31,0,0,1-6.07-1.24,51.58,51.58,0,0,1-5.62-2.5C71,24.94,67.45,23,63.77,21.56a39.37,39.37,0,0,0-11.35-2.73,32,32,0,0,0-5.79,0A26.5,26.5,0,0,0,41,19.88c-1.84.55-3.62,1.35-5.55,2.12a28.12,28.12,0,0,1-6.19,1.84,34.15,34.15,0,0,1-6.53.35,56.73,56.73,0,0,1-6.41-.56,48.78,48.78,0,0,1-6.18-1.31c-1-.28-2-.63-3-1L5.74,20.8c-.5-.14-.89-.57-.79-2.24A5,5,0,0,1,6,15.8Z"/><path class="cls-2" d="M68.52,21.26A31.64,31.64,0,0,0,76,16.84a40.11,40.11,0,0,1,3.71-2.54,13.23,13.23,0,0,1,3.8-1.51,14.67,14.67,0,0,1,3.91-.26,17.12,17.12,0,0,1,4,.69A18.55,18.55,0,0,1,95.52,15a18.12,18.12,0,0,1,4.24,3.42l.08.87a18,18,0,0,1-3.57,4.12A18.31,18.31,0,0,1,92.56,26a17,17,0,0,1-3.81,1.39,14.63,14.63,0,0,1-3.9.43,13.17,13.17,0,0,1-4-.8,42.21,42.21,0,0,1-4.11-1.84,31.18,31.18,0,0,0-8.14-3Z"/></svg>
